<?xml version="1.0" standalone="no"?>
<!-- Generator: SVG Circus (http://svgcircus.com) -->
<!DOCTYPE svg PUBLIC "-//W3C//DTD SVG 1.1//EN" "http://www.w3.org/Graphics/SVG/1.1/DTD/svg11.dtd">
<svg id="SVG-Circus-a8b11c77-d9d2-3470-5666-074cfea296bf" version="1.1" xmlns="http://www.w3.org/2000/svg" xmlns:xlink="http://www.w3.org/1999/xlink" viewBox="0 0 100 100" preserveAspectRatio="xMidYMid meet"><polygon id="actor_7" points="57.00,31.00 50.94,34.50 50.94,41.50 57.00,45.00 63.06,41.50 63.06,34.50" opacity="1" fill="#7bbe17" fill-opacity="1" stroke="rgba(166,3,17,1)" stroke-width="0" stroke-opacity="1" stroke-dasharray=""></polygon><polygon id="actor_6" points="43.00,31.00 36.94,34.50 36.94,41.50 43.00,45.00 49.06,41.50 49.06,34.50" opacity="1" fill="#7bbe17" fill-opacity="1" stroke="rgba(166,3,17,1)" stroke-width="0" stroke-opacity="1" stroke-dasharray=""></polygon><polygon id="actor_5" points="57.00,55.00 50.94,58.50 50.94,65.50 57.00,69.00 63.06,65.50 63.06,58.50" opacity="1" fill="#7bbe17" fill-opacity="1" stroke="rgba(166,3,17,1)" stroke-width="0" stroke-opacity="1" stroke-dasharray=""></polygon><polygon id="actor_4" points="43.00,55.00 36.94,58.50 36.94,65.50 43.00,69.00 49.06,65.50 49.06,58.50" opacity="1" fill="#7bbe17" fill-opacity="1" stroke="rgba(166,3,17,1)" stroke-width="0" stroke-opacity="1" stroke-dasharray=""></polygon><polygon id="actor_3" points="64.00,43.00 57.94,46.50 57.94,53.50 64.00,57.00 70.06,53.50 70.06,46.50" opacity="1" fill="#7bbe17" fill-opacity="1" stroke="rgba(166,3,17,1)" stroke-width="0" stroke-opacity="1" stroke-dasharray=""></polygon><polygon id="actor_2" points="36.00,43.00 29.94,46.50 29.94,53.50 36.00,57.00 42.06,53.50 42.06,46.50" opacity="1" fill="#7bbe17" fill-opacity="1" stroke="rgba(166,3,17,1)" stroke-width="0" stroke-opacity="1" stroke-dasharray=""></polygon><polygon id="actor_1" points="50.00,43.00 43.94,46.50 43.94,53.50 50.00,57.00 56.06,53.50 56.06,46.50" opacity="1" fill="#7bbe17" fill-opacity="1" stroke="rgba(166,3,17,1)" stroke-width="0" stroke-opacity="1" stroke-dasharray=""></polygon></svg>
